<svg width="24" height="24" viewBox="0 0 24 24" fill="none" xmlns="http://www.w3.org/2000/svg">
<path d="M16.5684 7.5579L9.49474 14.6316C9.22105 14.9053 11.2 14.9053 10.9263 14.6316L7.45263 11.1579C7.24211 10.9263 6.94737 10.8 6.61053 10.8C5.95789 10.8 5.41053 11.3474 5.41053 12C5.41053 12.3368 5.53684 12.6316 5.76842 12.8421L9.24211 16.3158C9.76842 16.8632 10.6526 16.8632 11.1789 16.3158L18.2526 9.24211C18.4842 9.03158 18.6105 8.73684 18.6105 8.4C18.6105 7.74737 18.0632 7.2 17.4105 7.2C17.0737 7.2 16.7789 7.32632 16.5684 7.5579ZM12 21.6C6.54737 21.6 2.4 17.4526 2.4 12C2.4 6.54737 6.54737 2.4 12 2.4C17.4526 2.4 21.6 6.54737 21.6 12C21.6 17.4526 17.4526 21.6 12 21.6ZM12 24C18.6316 24 24 18.6316 24 12C24 5.36842 18.6316 0 12 0C5.36842 0 0 5.36842 0 12C0 18.6316 5.36842 24 12 24Z" fill="#D2233C"/>
</svg>
