<svg width="24" height="24" viewBox="0 0 24 24" fill="none" xmlns="http://www.w3.org/2000/svg">
<path d="M12.0009 21.3329C6.70053 21.3329 2.66894 17.3013 2.66894 12.0009C2.66894 6.70053 6.70053 2.66894 12.0009 2.66894C17.3013 2.66894 21.3329 6.70053 21.3329 12.0009C21.3329 17.3013 17.3013 21.3329 12.0009 21.3329ZM12.0009 23.6659C18.4474 23.6659 23.6659 18.4474 23.6659 12.0009C23.6659 5.55449 18.4474 0.335938 12.0009 0.335938C5.55449 0.335938 0.335938 5.55449 0.335938 12.0009C0.335938 18.4474 5.55449 23.6659 12.0009 23.6659ZM7.67261 7.67261C7.21486 8.13036 7.21486 8.87252 7.67261 9.33027L14.6716 16.3293C15.1294 16.787 15.8715 16.787 16.3293 16.3293C16.787 15.8715 16.787 15.1294 16.3293 14.6716L9.33027 7.67261C8.87252 7.21486 8.13036 7.21486 7.67261 7.67261ZM16.3293 7.67261C15.8715 7.21486 15.1294 7.21486 14.6716 7.67261L7.67261 14.6716C7.21486 15.1294 7.21486 15.8715 7.67261 16.3293C8.13036 16.787 8.87252 16.787 9.33027 16.3293L16.3293 9.33027C16.787 8.87252 16.787 8.13036 16.3293 7.67261Z" fill="#333333"/>
</svg>
