<svg width="20" height="21" viewBox="0 0 20 21" fill="none" xmlns="http://www.w3.org/2000/svg">
<path fill-rule="evenodd" clip-rule="evenodd" d="M2.4 18.9001H17.6C18.9232 18.9001 20 17.8233 20 16.5001V16.4999V8.49989V6.9001C20 5.5769 18.9232 4.5001 17.6 4.5001H9.1528C8.98511 4.50022 8.82165 4.44749 8.68565 4.3494C8.54964 4.25131 8.44801 4.11285 8.3952 3.9537L8.324 3.7409C7.9968 2.7593 7.0816 2.1001 6.0472 2.1001H2.4C1.0768 2.1001 0 3.1769 0 4.5001V8.49989V16.4999V16.5001C0 17.8233 1.0768 18.9001 2.4 18.9001ZM1.6 7.69989V4.5001C1.6 4.0593 1.9584 3.7001 2.4 3.7001H6.0472C6.21489 3.69997 6.37835 3.7527 6.51435 3.85079C6.65036 3.94888 6.75199 4.08734 6.8048 4.2465L6.876 4.4593C7.03491 4.93738 7.34042 5.35323 7.74914 5.64778C8.15786 5.94232 8.649 6.10059 9.1528 6.1001H17.6C18.0416 6.1001 18.4 6.4593 18.4 6.9001V7.69989H1.6ZM1.6 9.29989V16.4999C1.6 16.9407 1.9584 17.2999 2.4 17.2999H17.6C18.0416 17.2999 18.4 16.9407 18.4 16.4999V9.29989H1.6Z" fill="#3B3B3B"/>
</svg>
