<svg width="24" height="24" viewBox="0 0 24 24" fill="none" xmlns="http://www.w3.org/2000/svg">
<path d="M2.30859 6.58477H1.50859L1.50859 8.18477H2.30859V6.58477ZM5.53936 8.18477C5.98119 8.18477 6.33936 7.82659 6.33936 7.38477C6.33936 6.94294 5.98119 6.58477 5.53936 6.58477V8.18477ZM2.30859 8.18477H5.53936V6.58477L2.30859 6.58477V8.18477Z" fill="#D2233C"/>
<path d="M11.0781 6.58428H10.2781V8.18428H11.0781V6.58428ZM21.6935 8.18428C22.1353 8.18428 22.4935 7.82611 22.4935 7.38428C22.4935 6.94245 22.1353 6.58428 21.6935 6.58428V8.18428ZM11.0781 8.18428L21.6935 8.18428V6.58428L11.0781 6.58428V8.18428Z" fill="#D2233C"/>
<path d="M2.30859 16.6152L12.924 16.6152" stroke="#D2233C" stroke-width="1.6" stroke-linecap="square"/>
<path d="M18.4609 15.8152H17.6609V17.4152H18.4609V15.8152ZM21.6917 17.4152C22.1335 17.4152 22.4917 17.0571 22.4917 16.6152C22.4917 16.1734 22.1335 15.8152 21.6917 15.8152V17.4152ZM18.4609 17.4152H21.6917V15.8152H18.4609V17.4152Z" fill="#D2233C"/>
<ellipse cx="8.30829" cy="7.38447" rx="2.76923" ry="2.76923" stroke="#D2233C" stroke-width="1.6"/>
<circle cx="15.6911" cy="16.6154" r="2.76923" stroke="#D2233C" stroke-width="1.6"/>
</svg>
