<svg width="21" height="18" viewBox="0 0 21 18" fill="none" xmlns="http://www.w3.org/2000/svg">
<path fill-rule="evenodd" clip-rule="evenodd" d="M2.65 17.4001H17.85C19.1732 17.4001 20.25 16.3233 20.25 15.0001V14.9999V6.99989V5.4001C20.25 4.0769 19.1732 3.0001 17.85 3.0001H9.4028C9.23511 3.00022 9.07165 2.94749 8.93565 2.8494C8.79964 2.75131 8.69801 2.61285 8.6452 2.4537L8.574 2.2409C8.2468 1.2593 7.3316 0.600098 6.2972 0.600098H2.65C1.3268 0.600098 0.25 1.6769 0.25 3.0001V6.99989V14.9999V15.0001C0.25 16.3233 1.3268 17.4001 2.65 17.4001ZM1.85 6.19989V3.0001C1.85 2.5593 2.2084 2.2001 2.65 2.2001H6.2972C6.46489 2.19997 6.62835 2.2527 6.76435 2.35079C6.90036 2.44888 7.00199 2.58734 7.0548 2.7465L7.126 2.9593C7.28491 3.43738 7.59042 3.85323 7.99914 4.14778C8.40786 4.44232 8.899 4.60059 9.4028 4.6001H17.85C18.2916 4.6001 18.65 4.9593 18.65 5.4001V6.19989H1.85ZM1.85 7.79989V14.9999C1.85 15.4407 2.2084 15.7999 2.65 15.7999H17.85C18.2916 15.7999 18.65 15.4407 18.65 14.9999V7.79989H1.85Z" fill="#97A2BB"/>
</svg>
