<svg width="21" height="17" viewBox="0 0 21 17" fill="none" xmlns="http://www.w3.org/2000/svg">
<path d="M19.8333 7H10.5C9.8655 7 9.33333 7.53216 9.33333 8.16667C9.33333 8.80117 9.8655 9.33333 10.5 9.33333H19.8333C20.4678 9.33333 21 8.80117 21 8.16667C21 7.53216 20.4678 7 19.8333 7ZM19.8333 0H1.16667C0.532164 0 0 0.532163 0 1.16667C0 1.80117 0.532164 2.33333 1.16667 2.33333H19.8333C20.4678 2.33333 21 1.80117 21 1.16667C21 0.532163 20.4678 0 19.8333 0ZM19.8333 14H5.83333C5.19883 14 4.66667 14.5322 4.66667 15.1667C4.66667 15.8012 5.19883 16.3333 5.83333 16.3333H19.8333C20.4678 16.3333 21 15.8012 21 15.1667C21 14.5322 20.4678 14 19.8333 14Z" fill="#333333"/>
</svg>
