<svg width="20" height="20" viewBox="0 0 20 20" fill="none" xmlns="http://www.w3.org/2000/svg">
<path d="M18.1667 9H1.83333C1.38012 9 1 9.38012 1 9.83333C1 10.2866 1.38012 10.6667 1.83333 10.6667H18.1667C18.6199 10.6667 19 10.2866 19 9.83333C19 9.38012 18.6199 9 18.1667 9ZM18.1667 4H1.83333C1.38012 4 1 4.38012 1 4.83333C1 5.28655 1.38012 5.66667 1.83333 5.66667H18.1667C18.6199 5.66667 19 5.28655 19 4.83333C19 4.38012 18.6199 4 18.1667 4ZM18.1667 14H1.83333C1.38012 14 1 14.3801 1 14.8333C1 15.2866 1.38012 15.6667 1.83333 15.6667H18.1667C18.6199 15.6667 19 15.2866 19 14.8333C19 14.3801 18.6199 14 18.1667 14Z" fill="#97A2BB"/>
</svg>
