<svg width="18" height="12" viewBox="0 0 18 12" fill="none" xmlns="http://www.w3.org/2000/svg">
<path d="M17.1667 5H0.833333C0.380117 5 0 5.38012 0 5.83333C0 6.28655 0.380117 6.66667 0.833333 6.66667H17.1667C17.6199 6.66667 18 6.28655 18 5.83333C18 5.38012 17.6199 5 17.1667 5ZM17.1667 0H0.833333C0.380117 0 0 0.380117 0 0.833334C0 1.28655 0.380117 1.66667 0.833333 1.66667H17.1667C17.6199 1.66667 18 1.28655 18 0.833334C18 0.380117 17.6199 0 17.1667 0ZM17.1667 10H0.833333C0.380117 10 0 10.3801 0 10.8333C0 11.2866 0.380117 11.6667 0.833333 11.6667H17.1667C17.6199 11.6667 18 11.2866 18 10.8333C18 10.3801 17.6199 10 17.1667 10Z" fill="#97A2BB"/>
</svg>
