<svg width="24" height="24" viewBox="0 0 24 24" fill="none" xmlns="http://www.w3.org/2000/svg">
<path d="M7.81659 8.79198C8.5658 5.99588 11.1442 4.50723 13.9403 5.25645C16.7364 6.00566 18.2251 8.58407 17.4758 11.3802L15.6641 18.1417L6.00486 15.5535L7.81659 8.79198ZM5.88474 8.27434L3.55537 16.9677L17.0783 20.5911L19.4077 11.8978C20.4112 8.15273 18.203 4.32809 14.458 3.32459C10.7129 2.3211 6.88823 4.52926 5.88474 8.27434ZM18.5619 18.9181L16.63 18.4005C16.1047 18.2597 15.5461 18.5822 15.4053 19.1076C15.2645 19.6329 15.5871 20.1916 16.1124 20.3323L18.0443 20.85C18.5696 20.9907 19.1282 20.6682 19.269 20.1429C19.4098 19.6175 19.0872 19.0589 18.5619 18.9181ZM2.58944 16.7089L4.52129 17.2265C5.04662 17.3673 5.60527 17.0447 5.74604 16.5194C5.8868 15.9941 5.56426 15.4354 5.03893 15.2946L3.10708 14.777C2.58175 14.6362 2.02309 14.9588 1.88233 15.4841C1.74157 16.0094 2.06411 16.5681 2.58944 16.7089ZM9.79921 20.7113C9.93997 20.1859 9.61743 19.6273 9.0921 19.4865C8.56677 19.3458 8.00812 19.6683 7.86736 20.1936C7.58129 21.2612 8.21397 22.357 9.28157 22.6431C10.3492 22.9292 11.445 22.2965 11.7311 21.2289C11.8718 20.7036 11.5493 20.1449 11.024 20.0042C10.4986 19.8634 9.93997 20.1859 9.79921 20.7113ZM12.2673 3.77288L11.9404 4.993C13.4059 5.14958 13.6692 5.18379 13.9403 5.25645C14.2115 5.3291 14.4566 5.4311 15.8041 6.02828L16.131 4.80816C16.417 3.74056 15.7844 2.64473 14.7168 2.35867C13.6492 2.07261 12.5533 2.70528 12.2673 3.77288ZM8.57446 21.4184L10.5063 21.936C11.0316 22.0768 11.5903 21.7542 11.7311 21.2289C11.8718 20.7036 11.5493 20.1449 11.024 20.0042L9.0921 19.4865C8.56677 19.3458 8.00812 19.6683 7.86736 20.1936C7.7266 20.7189 8.04914 21.2776 8.57446 21.4184ZM10.7651 20.9701L8.83328 20.4524C8.69252 20.9778 9.01506 21.5364 9.54039 21.6772C10.0657 21.8179 10.6244 21.4954 10.7651 20.9701Z" fill="#D2233C"/>
</svg>
