<svg width="24" height="24" viewBox="0 0 24 24" fill="none" xmlns="http://www.w3.org/2000/svg">
<path d="M3.70218 17.5826V18.5923C3.70218 19.0643 3.32434 19.4469 2.85102 19.4469C2.38097 19.4469 2 19.0632 2 18.5923V15.1951V15.1933V15.1916C2 14.957 2.09546 14.7449 2.24962 14.5909C2.40279 14.4355 2.61509 14.3404 2.85101 14.3404H2.85286H2.85471H6.25167C6.72368 14.3404 7.10641 14.7182 7.10641 15.1915C7.10641 15.6616 6.72259 16.0426 6.25167 16.0426H4.75181C6.17073 18.5814 8.88508 20.2981 12 20.2981C16.5826 20.2981 20.2979 16.5828 20.2979 12.0001C20.2979 11.9288 20.2969 11.858 20.2952 11.7872H21.9978C21.9992 11.858 21.9999 11.929 21.9999 12.0001C21.9999 17.5231 17.5227 22 12.0001 22C8.54464 22 5.4986 20.2473 3.70224 17.5825L3.70218 17.5826ZM20.298 6.41736V5.40788C20.298 4.93586 20.6757 4.55313 21.149 4.55313C21.619 4.55313 22 4.93696 22 5.40788V8.80489V8.80674V8.80859C22 9.04297 21.9045 9.25526 21.7505 9.40915C21.5974 9.56445 21.3851 9.65963 21.149 9.65963H21.1471H21.1454H17.7483C17.2763 9.65963 16.8936 9.28193 16.8936 8.8086C16.8936 8.33855 17.2774 7.95742 17.7483 7.95742H19.2483C17.8293 5.4186 15.1151 3.70228 12.0002 3.70228C7.4883 3.70228 3.8179 7.30288 3.70483 11.7873H2.00235C2.11548 6.36275 6.54851 2 12.0003 2C15.4557 2 18.5018 3.75265 20.2982 6.41746L20.298 6.41736Z" fill="#D2233C"/>
</svg>
