<svg width="18" height="20" viewBox="0 0 18 20" fill="none" xmlns="http://www.w3.org/2000/svg">
<path fill-rule="evenodd" clip-rule="evenodd" d="M0.449219 1.99971C0.449219 1.00559 1.25511 0.199707 2.24922 0.199707H15.8118C16.8059 0.199707 17.6118 1.00559 17.6118 1.99971V17.8499C17.6118 18.844 16.8059 19.6499 15.8118 19.6499H2.24922C1.25511 19.6499 0.449219 18.844 0.449219 17.8499V1.99971ZM2.24922 1.79971C2.13876 1.79971 2.04922 1.88925 2.04922 1.99971V17.8499C2.04922 17.9603 2.13876 18.0499 2.24922 18.0499H15.8118C15.9222 18.0499 16.0118 17.9603 16.0118 17.8499V1.99971C16.0118 1.88925 15.9222 1.79971 15.8118 1.79971H2.24922ZM3.90748 9.92549C3.90748 9.48366 4.26566 9.12549 4.70748 9.12549H13.3534C13.7952 9.12549 14.1534 9.48366 14.1534 9.92549V13.388C14.1534 14.3821 13.3475 15.188 12.3534 15.188H5.70748C4.71337 15.188 3.90748 14.3821 3.90748 13.388V9.92549ZM5.50748 10.7255V13.388C5.50748 13.4985 5.59703 13.588 5.70748 13.588H12.3534C12.4638 13.588 12.5534 13.4985 12.5534 13.388V10.7255H5.50748ZM4.70748 4.6626C4.26566 4.6626 3.90748 5.02077 3.90748 5.4626C3.90748 5.90443 4.26566 6.2626 4.70748 6.2626H13.3534C13.7952 6.2626 14.1534 5.90443 14.1534 5.4626C14.1534 5.02077 13.7952 4.6626 13.3534 4.6626H4.70748Z" fill="#97A2BB"/>
</svg>
