<svg width="20" height="20" viewBox="0 0 20 20" fill="none" xmlns="http://www.w3.org/2000/svg">
<path fill-rule="evenodd" clip-rule="evenodd" d="M1.44922 1.99971C1.44922 1.00559 2.25511 0.199707 3.24922 0.199707H16.8118C17.8059 0.199707 18.6118 1.00559 18.6118 1.99971V17.8499C18.6118 18.844 17.8059 19.6499 16.8118 19.6499H3.24922C2.25511 19.6499 1.44922 18.844 1.44922 17.8499V1.99971ZM3.24922 1.79971C3.13876 1.79971 3.04922 1.88925 3.04922 1.99971V17.8499C3.04922 17.9603 3.13876 18.0499 3.24922 18.0499H16.8118C16.9222 18.0499 17.0118 17.9603 17.0118 17.8499V1.99971C17.0118 1.88925 16.9222 1.79971 16.8118 1.79971H3.24922ZM4.90748 9.92549C4.90748 9.48366 5.26566 9.12549 5.70748 9.12549H14.3534C14.7952 9.12549 15.1534 9.48366 15.1534 9.92549V13.388C15.1534 14.3821 14.3475 15.188 13.3534 15.188H6.70748C5.71337 15.188 4.90748 14.3821 4.90748 13.388V9.92549ZM6.50748 10.7255V13.388C6.50748 13.4985 6.59703 13.588 6.70748 13.588H13.3534C13.4638 13.588 13.5534 13.4985 13.5534 13.388V10.7255H6.50748ZM5.70748 4.6626C5.26566 4.6626 4.90748 5.02077 4.90748 5.4626C4.90748 5.90443 5.26566 6.2626 5.70748 6.2626H14.3534C14.7952 6.2626 15.1534 5.90443 15.1534 5.4626C15.1534 5.02077 14.7952 4.6626 14.3534 4.6626H5.70748Z" fill="#97A2BB"/>
</svg>
